<svg width="293" height="269" viewBox="0 0 293 269" fill="none" xmlns="http://www.w3.org/2000/svg">
<circle cx="16.2664" cy="67.0259" r="12.5" transform="rotate(-21.9501 16.2664 67.0259)" fill="#0C111C"/>
<circle cx="34.9563" cy="113.402" r="12.5" transform="rotate(-21.9501 34.9563 113.402)" fill="#0C111C"/>
<circle cx="53.6462" cy="159.777" r="12.5" transform="rotate(-21.9501 53.6462 159.777)" fill="#0C111C"/>
<circle cx="72.3362" cy="206.153" r="12.5" transform="rotate(-21.9501 72.3362 206.153)" fill="#0C111C"/>
<circle cx="91.0261" cy="252.528" r="12.5" transform="rotate(-21.9501 91.0261 252.528)" fill="#0C111C"/>
<circle cx="62.6418" cy="48.3364" r="12.5" transform="rotate(-21.9501 62.6418 48.3364)" fill="#0C111C"/>
<circle cx="81.3318" cy="94.7114" r="12.5" transform="rotate(-21.9501 81.3318 94.7114)" fill="#0C111C"/>
<circle cx="100.022" cy="141.087" r="12.5" transform="rotate(-21.9501 100.022 141.087)" fill="#0C111C"/>
<circle cx="118.712" cy="187.462" r="12.5" transform="rotate(-21.9501 118.712 187.462)" fill="#0C111C"/>
<circle cx="137.402" cy="233.838" r="12.5" transform="rotate(-21.9501 137.402 233.838)" fill="#0C111C"/>
<circle cx="109.017" cy="29.646" r="12.5" transform="rotate(-21.9501 109.017 29.646)" fill="#0C111C"/>
<circle cx="127.707" cy="76.022" r="12.5" transform="rotate(-21.9501 127.707 76.022)" fill="#0C111C"/>
<circle cx="146.397" cy="122.397" r="12.5" transform="rotate(-21.9501 146.397 122.397)" fill="#0C111C"/>
<circle cx="165.087" cy="168.773" r="12.5" transform="rotate(-21.9501 165.087 168.773)" fill="#0C111C"/>
<circle cx="183.777" cy="215.148" r="12.5" transform="rotate(-21.9501 183.777 215.148)" fill="#0C111C"/>
<circle cx="155.393" cy="10.9565" r="12.5" transform="rotate(-21.9501 155.393 10.9565)" fill="#0C111C"/>
<circle cx="174.083" cy="57.3315" r="12.5" transform="rotate(-21.9501 174.083 57.3315)" fill="#0C111C"/>
<circle cx="192.773" cy="103.708" r="12.5" transform="rotate(-21.9501 192.773 103.708)" fill="#0C111C"/>
<circle cx="211.463" cy="150.083" r="12.5" transform="rotate(-21.9501 211.463 150.083)" fill="#0C111C"/>
<circle cx="230.153" cy="196.458" r="12.5" transform="rotate(-21.9501 230.153 196.458)" fill="#0C111C"/>
<circle cx="201.768" cy="-7.73388" r="12.5" transform="rotate(-21.9501 201.768 -7.73388)" fill="#0C111C"/>
<circle cx="220.458" cy="38.6421" r="12.5" transform="rotate(-21.9501 220.458 38.6421)" fill="#0C111C"/>
<circle cx="239.148" cy="85.0171" r="12.5" transform="rotate(-21.9501 239.148 85.0171)" fill="#0C111C"/>
<circle cx="257.838" cy="131.393" r="12.5" transform="rotate(-21.9501 257.838 131.393)" fill="#0C111C"/>
<circle cx="276.528" cy="177.768" r="12.5" transform="rotate(-21.9501 276.528 177.768)" fill="#0C111C"/>
</svg>
