<svg width="205" height="205" viewBox="0 0 205 205" fill="none" xmlns="http://www.w3.org/2000/svg">
<circle cx="77.4394" cy="11.3568" r="8.33278" transform="rotate(29.5019 77.4394 11.3568)" fill="#0C111C"/>
<circle cx="61.0253" cy="40.3666" r="8.33278" transform="rotate(29.5019 61.0253 40.3666)" fill="#0C111C"/>
<circle cx="44.6115" cy="69.3754" r="8.33278" transform="rotate(29.5019 44.6115 69.3754)" fill="#0C111C"/>
<circle cx="28.1974" cy="98.3851" r="8.33278" transform="rotate(29.5019 28.1974 98.3851)" fill="#0C111C"/>
<circle cx="11.7836" cy="127.395" r="8.33278" transform="rotate(29.5019 11.7836 127.395)" fill="#0C111C"/>
<circle cx="106.449" cy="27.7709" r="8.33278" transform="rotate(29.5019 106.449 27.7709)" fill="#0C111C"/>
<circle cx="90.0348" cy="56.7806" r="8.33278" transform="rotate(29.5019 90.0348 56.7806)" fill="#0C111C"/>
<circle cx="73.6208" cy="85.7894" r="8.33278" transform="rotate(29.5019 73.6208 85.7894)" fill="#0C111C"/>
<circle cx="57.207" cy="114.799" r="8.33278" transform="rotate(29.5019 57.207 114.799)" fill="#0C111C"/>
<circle cx="40.7927" cy="143.809" r="8.33278" transform="rotate(29.5019 40.7927 143.809)" fill="#0C111C"/>
<circle cx="135.458" cy="44.1849" r="8.33278" transform="rotate(29.5019 135.458 44.1849)" fill="#0C111C"/>
<circle cx="119.044" cy="73.1947" r="8.33278" transform="rotate(29.5019 119.044 73.1947)" fill="#0C111C"/>
<circle cx="102.63" cy="102.203" r="8.33278" transform="rotate(29.5019 102.63 102.203)" fill="#0C111C"/>
<circle cx="86.216" cy="131.213" r="8.33278" transform="rotate(29.5019 86.216 131.213)" fill="#0C111C"/>
<circle cx="69.8024" cy="160.222" r="8.33278" transform="rotate(29.5019 69.8024 160.222)" fill="#0C111C"/>
<circle cx="164.467" cy="60.599" r="8.33278" transform="rotate(29.5019 164.467 60.599)" fill="#0C111C"/>
<circle cx="148.054" cy="89.6078" r="8.33278" transform="rotate(29.5019 148.054 89.6078)" fill="#0C111C"/>
<circle cx="131.639" cy="118.618" r="8.33278" transform="rotate(29.5019 131.639 118.618)" fill="#0C111C"/>
<circle cx="115.226" cy="147.627" r="8.33278" transform="rotate(29.5019 115.226 147.627)" fill="#0C111C"/>
<circle cx="98.8115" cy="176.636" r="8.33278" transform="rotate(29.5019 98.8115 176.636)" fill="#0C111C"/>
<circle cx="193.477" cy="77.0131" r="8.33278" transform="rotate(29.5019 193.477 77.0131)" fill="#0C111C"/>
<circle cx="177.063" cy="106.022" r="8.33278" transform="rotate(29.5019 177.063 106.022)" fill="#0C111C"/>
<circle cx="160.649" cy="135.032" r="8.33278" transform="rotate(29.5019 160.649 135.032)" fill="#0C111C"/>
<circle cx="144.235" cy="164.041" r="8.33278" transform="rotate(29.5019 144.235 164.041)" fill="#0C111C"/>
<circle cx="127.821" cy="193.05" r="8.33278" transform="rotate(29.5019 127.821 193.05)" fill="#0C111C"/>
</svg>
